HIERARCHY
ROOT Hips
{
    OFFSET 0.000000 0.000000 0.000000
    CHANNELS 6 Xposition Yposition Zposition Zrotation Xrotation Yrotation
    JOINT Spine
    {
        OFFSET -0.000000 8.267054 0.000000
        CHANNELS 3 Zrotation Xrotation Yrotation
        JOINT Spine1
        {
            OFFSET -0.000000 23.684998 0.000000
            CHANNELS 3 Zrotation Xrotation Yrotation
            JOINT Neck
            {
                OFFSET -0.000000 23.587730 2.144339
                CHANNELS 3 Zrotation Xrotation Yrotation
                JOINT Head
                {
                    OFFSET -0.000000 14.114483 -2.016355
                    CHANNELS 3 Zrotation Xrotation Yrotation
                    End Site
                    {
                        OFFSET -0.000000 25.204432 0.000000
                    }
                }
            }
            JOINT LeftShoulder
            {
                OFFSET 4.070090 22.062094 -0.247321
                CHANNELS 3 Zrotation Xrotation Yrotation
                JOINT LeftArm
                {
                    OFFSET 10.395479 0.000000 0.000000
                    CHANNELS 3 Zrotation Xrotation Yrotation
                    JOINT LeftForeArm
                    {
                        OFFSET 37.713577 0.000000 0.000000
                        CHANNELS 3 Zrotation Xrotation Yrotation
                        JOINT LeftHand
                        {
                            OFFSET 20.284107 0.000000 0.000000
                            CHANNELS 3 Zrotation Xrotation Yrotation
                            End Site
                            {
                                OFFSET 15.122660 0.000000 0.000000
                            }
                        }
                    }
                }
            }
            JOINT RightShoulder
            {
                OFFSET -3.979272 22.062094 -0.247321
                CHANNELS 3 Zrotation Xrotation Yrotation
                JOINT RightArm
                {
                    OFFSET -10.395479 0.000000 0.000000
                    CHANNELS 3 Zrotation Xrotation Yrotation
                    JOINT RightForeArm
                    {
                        OFFSET -37.713577 0.000000 0.000000
                        CHANNELS 3 Zrotation Xrotation Yrotation
                        JOINT RightHand
                        {
                            OFFSET -20.284107 0.000000 0.000000
                            CHANNELS 3 Zrotation Xrotation Yrotation
                            End Site
                            {
                                OFFSET -15.122660 0.000000 0.000000
                            }
                        }
                    }
                }
            }
        }
    }
    JOINT LeftUpLeg
    {
        OFFSET 10.081773 0.000000 0.000000
        CHANNELS 3 Zrotation Xrotation Yrotation
        JOINT LeftLeg
        {
            OFFSET -0.000000 -36.382099 0.000000
            CHANNELS 3 Zrotation Xrotation Yrotation
            JOINT LeftFoot
            {
                OFFSET -0.000000 -49.182560 0.000000
                CHANNELS 3 Zrotation Xrotation Yrotation
                JOINT LeftToeBase
                {
                    OFFSET -0.000000 -6.553152 15.122660
                    CHANNELS 3 Zrotation Xrotation Yrotation
                    End Site
                    {
                        OFFSET -0.000000 0.000000 4.032709
                    }
                }
            }
        }
    }
    JOINT RightUpLeg
    {
        OFFSET -10.081773 0.000000 0.000000
        CHANNELS 3 Zrotation Xrotation Yrotation
        JOINT RightLeg
        {
            OFFSET -0.000000 -36.382099 0.000000
            CHANNELS 3 Zrotation Xrotation Yrotation
            JOINT RightFoot
            {
                OFFSET -0.000000 -49.182560 0.000000
                CHANNELS 3 Zrotation Xrotation Yrotation
                JOINT RightToeBase
                {
                    OFFSET -0.000000 -6.553152 15.122660
                    CHANNELS 3 Zrotation Xrotation Yrotation
                    End Site
                    {
                        OFFSET -0.000000 0.000000 4.032709
                    }
                }
            }
        }
    }
}
MOTION
Frames:    7
Frame Time:    0.008333
-20.201937    94.132637    -118.006554    1.388890    0.425054    1.147272    -1.939293    -8.243388    0.304574    0.792036    0.724880    0.439321    -4.412962    25.661579    -13.666897    14.203391    8.976401    -13.763645    16.122755    -0.607680    -8.203159    -23.830124    2.413586    -3.130779    -0.417227    -1.098176    5.943231    4.385510    -1.145856    -1.809756    -13.837502    -0.092478    -0.940629    25.377541    4.505939    6.520834    -0.131062    -0.033454    -1.930327    -8.169405    0.011225    -0.678289    -3.432127    -5.973252    -3.009203    0.619007    15.983785    7.537115    -1.050727    -8.354800    -4.342658    0.000000    0.000000    0.000000    -1.760134    -2.767974    -0.579451    1.110416    12.441806    1.227619    -0.104962    -8.452911    -9.289801    0.000000    0.000000    0.000000    
-20.197571    94.132217    -117.998566    1.385341    0.428089    1.171877    -1.933346    -8.247420    0.308005    0.792837    0.728732    0.442418    -4.416745    25.669121    -13.664717    14.197687    8.995702    -13.764858    16.124056    -0.609828    -8.215053    -23.804707    2.457838    -3.164448    -0.458155    -1.107859    5.953301    4.389678    -1.152897    -1.796643    -13.833791    -0.096244    -0.938140    25.386511    4.475727    6.511321    -0.116751    -0.017777    -1.967858    -8.171106    0.027934    -0.677543    -3.424749    -5.993897    -2.963465    0.620707    16.016895    7.483416    -1.063052    -8.357973    -4.351208    0.000000    0.000000    0.000000    -1.755002    -2.760607    -0.556530    1.111289    12.432889    1.133505    -0.088464    -8.454112    -9.254240    0.000000    0.000000    0.000000    
-20.193346    94.131805    -117.990578    1.381881    0.431560    1.196220    -1.927717    -8.251740    0.311390    0.793437    0.732189    0.445405    -4.422076    25.676863    -13.661975    14.194858    9.015893    -13.765540    16.126127    -0.612242    -8.227469    -23.782490    2.504775    -3.195532    -0.488411    -1.117895    5.957861    4.383192    -1.160632    -1.780367    -13.829077    -0.100206    -0.935994    25.394506    4.444980    6.503173    -0.102185    0.001785    -2.006333    -8.173165    0.040345    -0.676177    -3.417476    -6.014015    -2.917656    0.622717    16.048477    7.430294    -1.075404    -8.361185    -4.360091    0.000000    0.000000    0.000000    -1.749985    -2.753208    -0.536219    1.111686    12.424467    1.055969    -0.074894    -8.456316    -9.232546    0.000000    0.000000    0.000000    
-20.189312    94.131386    -117.982307    1.378202    0.435104    1.220711    -1.922913    -8.255816    0.314483    0.795380    0.734805    0.448177    -4.430174    25.684986    -13.658630    14.194867    9.037706    -13.765889    16.128122    -0.615510    -8.241479    -23.762905    2.555149    -3.222831    -0.506969    -1.128613    5.954551    4.366576    -1.169363    -1.759430    -13.824616    -0.104254    -0.933854    25.402002    4.412603    6.496819    -0.087717    0.011454    -2.046511    -8.175688    0.061546    -0.672220    -3.409938    -6.032790    -2.870332    0.625472    16.077898    7.376978    -1.088531    -8.364514    -4.370281    0.000000    0.000000    0.000000    -1.744729    -2.745947    -0.527225    1.109821    12.418125    1.005434    -0.066404    -8.458853    -9.225002    0.000000    0.000000    0.000000    
-20.185682    94.130997    -117.974136    1.374399    0.439315    1.244277    -1.918975    -8.260394    0.316949    0.797737    0.736816    0.450568    -4.437975    25.692175    -13.655874    14.194703    9.060515    -13.766955    16.131374    -0.619328    -8.256376    -23.745806    2.603832    -3.245482    -0.516581    -1.138824    5.942960    4.350044    -1.177916    -1.734813    -13.819506    -0.108591    -0.931488    25.408327    4.381058    6.492232    -0.073600    0.025562    -2.085369    -8.177588    0.074898    -0.668918    -3.402183    -6.050058    -2.823973    0.628327    16.103685    7.326516    -1.101430    -8.367965    -4.381569    0.000000    0.000000    0.000000    -1.739141    -2.740391    -0.532514    1.104766    12.414784    0.982167    -0.062642    -8.461152    -9.226722    0.000000    0.000000    0.000000    
-20.182364    94.130646    -117.965889    1.370476    0.444679    1.267541    -1.916674    -8.265785    0.318847    0.802242    0.737880    0.452251    -4.446033    25.699598    -13.653695    14.193507    9.083251    -13.768691    16.134443    -0.624389    -8.273087    -23.729279    2.650367    -3.263341    -0.521847    -1.151659    5.924635    4.346354    -1.189660    -1.713320    -13.814914    -0.113279    -0.928537    25.413700    4.351618    6.488760    -0.059852    0.038112    -2.121943    -8.178581    0.085268    -0.663933    -3.394152    -6.066569    -2.776891    0.631538    16.126400    7.275825    -1.114223    -8.371678    -4.393012    0.000000    0.000000    0.000000    -1.732978    -2.736433    -0.548955    1.096795    12.413177    0.978766    -0.061890    -8.462951    -9.235014    0.000000    0.000000    0.000000    
-20.179499    94.130348    -117.957596    1.366063    0.451161    1.290274    -1.916192    -8.272022    0.319953    0.810039    0.738040    0.453310    -4.454550    25.708448    -13.651694    14.191082    9.103207    -13.770424    16.136419    -0.630725    -8.291709    -23.712324    2.693244    -3.276516    -0.526415    -1.171156    5.902195    4.365761    -1.208927    -1.702360    -13.812224    -0.118146    -0.924995    25.418686    4.326221    6.486164    -0.047272    0.047275    -2.154232    -8.179873    0.093930    -0.654706    -3.385301    -6.081713    -2.730921    0.634501    16.145275    7.224302    -1.126335    -8.375804    -4.402120    0.000000    0.000000    0.000000    -1.725777    -2.734246    -0.576112    1.085969    12.413368    0.993878    -0.063788    -8.464111    -9.249270    0.000000    0.000000    0.000000    
